<svg id="Capa_1" data-name="Capa 1" xmlns="http://www.w3.org/2000/svg" viewBox="0 0 960 400"><defs><style>.cls-1{fill:#fff;}.cls-2{fill:#fbec91;}</style></defs><polygon class="cls-1" points="841.4 146.79 847.86 146.79 804.02 246.69 798.51 246.69 776.33 195.57 753.98 246.67 748.47 246.67 704.62 146.79 711.07 146.79 751.41 239.15 772.65 189.88 754.52 146.79 760.47 146.79 776.33 184.01 792.2 146.79 798.06 146.79 779.83 189.88 801.27 239.17 841.4 146.79"/><path class="cls-1" d="M181.15,116.18h5.51l56.06,130.51h-6.8l-19.14-45H151l-19.13,45h-7Zm33.3,80L183.9,124.27l-30.53,71.87Z"/><path class="cls-1" d="M473.61,246.27a42.65,42.65,0,0,1-18.1-4,46.62,46.62,0,0,1-14.89-10.84,50.86,50.86,0,0,1-9.93-16,52.54,52.54,0,0,1-3.58-19.38,49.45,49.45,0,0,1,6.07-24.35,47.68,47.68,0,0,1,16.45-17.58,44.65,44.65,0,0,1,46.87.09A50,50,0,0,1,513.13,172a49.21,49.21,0,0,1,6.25,24.63v1.47a6.08,6.08,0,0,1-.18,1.46H433.54a47.62,47.62,0,0,0,6.53,20.95,43.42,43.42,0,0,0,14.52,14.89A36.14,36.14,0,0,0,474,241a38.05,38.05,0,0,0,19.67-5.43,31.18,31.18,0,0,0,13.05-13.88l5.7,1.48a33.55,33.55,0,0,1-8.64,11.94,42.22,42.22,0,0,1-13.7,8.27,46.32,46.32,0,0,1-16.45,2.94m-40.25-52h79.77A47.26,47.26,0,0,0,507,172.94a40.63,40.63,0,0,0-14.24-14.55,37.49,37.49,0,0,0-19.67-5.3,36.66,36.66,0,0,0-19.39,5.3A40.78,40.78,0,0,0,439.51,173a47.51,47.51,0,0,0-6.15,21.23"/><path class="cls-1" d="M541.25,110.26h6.44V228.91c0,4,1,6.89,3,8.8a11.18,11.18,0,0,0,8,2.87,30.3,30.3,0,0,0,5.41-.55,50.2,50.2,0,0,0,5.43-1.29l1.46,5.14a48.29,48.29,0,0,1-6.89,1.66,41.4,41.4,0,0,1-7.07.73,15.58,15.58,0,0,1-11.4-4.34q-4.41-4.35-4.41-11.76Z"/><path class="cls-2" d="M639,246.27a43.3,43.3,0,0,1-18.19-3.85,44.56,44.56,0,0,1-14.71-10.73,52.25,52.25,0,0,1-9.65-53.76,52.18,52.18,0,0,1,9.84-15.77A44.56,44.56,0,0,1,621,151.43a43.32,43.32,0,0,1,35.75,0,45.83,45.83,0,0,1,14.7,10.73,52.1,52.1,0,0,1,10,53.75,50,50,0,0,1-9.83,15.78A45.83,45.83,0,0,1,657,242.42,42.24,42.24,0,0,1,639,246.27m-39.88-49A44.75,44.75,0,0,0,604.48,219a41.92,41.92,0,0,0,14.33,15.59,37.13,37.13,0,0,0,39.9-.09,43.11,43.11,0,0,0,14.42-15.87,45.27,45.27,0,0,0,5.42-21.92,44.41,44.41,0,0,0-5.42-21.64,43.2,43.2,0,0,0-14.42-15.77,35.6,35.6,0,0,0-19.86-5.88,35,35,0,0,0-19.76,6.06,45,45,0,0,0-19.94,37.78"/><path class="cls-2" d="M673.13,262.13A43,43,0,0,1,658.7,278a37.09,37.09,0,0,1-39.89.1,41.87,41.87,0,0,1-14.33-15.6,42.46,42.46,0,0,1-2.84-6.66h-6.45c.37,1.2.75,2.39,1.2,3.56a51,51,0,0,0,9.74,15.77,44.7,44.7,0,0,0,14.71,10.73,43.31,43.31,0,0,0,18.2,3.85A42.26,42.26,0,0,0,657,285.89a45.87,45.87,0,0,0,14.71-10.73,49.91,49.91,0,0,0,9.83-15.77c.46-1.17.83-2.36,1.2-3.56h-6.82a43.81,43.81,0,0,1-2.74,6.3"/><path class="cls-2" d="M613.71,133a5,5,0,1,1-5-5,5,5,0,0,1,5,5"/><path class="cls-2" d="M674.17,133a5,5,0,1,1-5-5,5,5,0,0,1,5,5"/><path class="cls-2" d="M643.94,133a5,5,0,1,1-5-5,5,5,0,0,1,5,5"/><path class="cls-1" d="M405.24,246.69h-6.43V192q0-19.78-6.13-29.32t-18.8-9.52a33,33,0,0,0-23.06,9.05q-9.81,9-13.79,23.38v61.09h-6.42V192q0-20-5.95-29.41t-18.8-9.43A33.21,33.21,0,0,0,283.09,162q-9.91,8.85-14.07,23.37v61.29h-6.43V148.64h6.24v24.51q6.24-12.45,16.15-19.23a37.5,37.5,0,0,1,21.63-6.8q12.28,0,20.22,7.55t9.45,20q7.17-13.77,16.81-20.65a37.09,37.09,0,0,1,22.1-6.89A29.61,29.61,0,0,1,388.7,150a24.24,24.24,0,0,1,9.27,8.4,40.65,40.65,0,0,1,5.47,13.86,90.31,90.31,0,0,1,1.8,19Z"/></svg>