<svg xmlns="http://www.w3.org/2000/svg" viewBox="0 0 217.76 47.36"><defs><style>.cls-1{fill:#f36e63;}</style></defs><title>ankara2</title><g id="Capa_2" data-name="Capa 2"><g id="Capa_2-2" data-name="Capa 2"><path class="cls-1" d="M46.24,46.58C38.61,49.39,30.9,44.74,26,30.24L24.11,24.7H10.83L7.48,33.33a2.06,2.06,0,0,0,1.84,3h.42v.48H0v-.48H.44a4.72,4.72,0,0,0,4.11-2.79l12-28.78c-2.1-3-5.18-4.8-10.19-3l-.14-.49C17.55-3.48,21,5.79,23.36,12.61l5.9,16.73C32,37.1,37.4,48,46.2,46.1ZM23.62,23.25,19.8,12a40.74,40.74,0,0,0-2-5.08L11.4,23.25Z"/><path class="cls-1" d="M72.81,3v.49h-.9a3,3,0,0,0-3,2.89v25a48.27,48.27,0,0,0,.45,6.17h-.44L42.52,9.37v24.1a3,3,0,0,0,3,2.9h.9v.49h-10v-.49h.89a3,3,0,0,0,3-2.93V8.29a41.71,41.71,0,0,0-.45-6h.48L66.73,30.39v-24a3,3,0,0,0-3-2.93h-.9V3Z"/><path class="cls-1" d="M83.22,33.33a3.11,3.11,0,0,0,3.11,3h.61v.48H76.35v-.48H77a3.11,3.11,0,0,0,3.11-3V6.47a3.11,3.11,0,0,0-3.11-3h-.61V3H87v.49h-.61a3.11,3.11,0,0,0-3.11,3Zm18,1.06a6.11,6.11,0,0,0,4.58,2v.48h-2c-1.36,0-5.07-.15-7.3-2.75L84.78,20,96.2,5.68A1.37,1.37,0,0,0,95,3.39h-.46V3h10.22V3.4h-.21a7,7,0,0,0-5.22,2.27L88,18.83Z"/><path class="cls-1" d="M140.14,33.32a4.79,4.79,0,0,0,4.26,3h.4v.48H133.9v-.48h.43c1.25,0,2.54-1.1,1.84-3l-3.1-8.24H120l-3.24,8.27a2,2,0,0,0,1.85,3h.42v.48h-9.74v-.48h.43a4.77,4.77,0,0,0,4.24-3l11-26s1.8-3.92,1.8-5h.43Zm-7.62-9.68L126.69,8.1,120.6,23.64Z"/><path class="cls-1" d="M161.4,3c5.87,0,9.46,3.46,9.46,9.1,0,4.69-3.57,9.23-8.22,9.23a11.7,11.7,0,0,1,3.46,3.41s4.18,6,6.05,8,3.74,3.63,6.59,3.66v.48h-2.66a10.42,10.42,0,0,1-8.45-4.24c-.55-.66-6-8.6-6.37-9.06-1.27-1.59-2.68-3.27-4.45-3.27v-.45s1.1,0,2.56,0c2.51-.07,6.18-.67,7.55-5a9.79,9.79,0,0,0,.31-2.9c-.12-4.38-2.4-7.18-6-7.38-2.47-.14-5.4,0-6,0V33.33a3.1,3.1,0,0,0,3.1,3h.61v.48H148.34v-.48H149a3.09,3.09,0,0,0,3.1-3V6.49a3.09,3.09,0,0,0-3.1-3h-.61V3Z"/><path class="cls-1" d="M213.1,33.32a4.79,4.79,0,0,0,4.26,3h.4v.48h-10.9v-.48h.43c1.25,0,2.54-1.1,1.83-3L206,25.09H193l-3.24,8.27a2,2,0,0,0,1.85,3H192v.48h-9.74v-.48h.43a4.78,4.78,0,0,0,4.24-3l11-26s1.79-3.92,1.79-5h.44Zm-7.62-9.68L199.65,8.1l-6.09,15.54Z"/></g></g></svg>