<svg xmlns="http://www.w3.org/2000/svg" viewBox="0 0 97.71 21.25"><defs><style>.cls-1{fill:#f36e63;}</style></defs><title>ankara</title><g id="Capa_2" data-name="Capa 2"><g id="Capa_2-2" data-name="Capa 2"><path class="cls-1" d="M20.75,20.9c-3.43,1.26-6.89-.82-9.09-7.33l-.84-2.49h-6L3.36,15a.92.92,0,0,0,.82,1.36h.19v.22H0v-.22H.2A2.12,2.12,0,0,0,2,15.07L7.42,2.15A3.53,3.53,0,0,0,2.85.81L2.79.6c5.09-2.16,6.61,2,7.69,5.06l2.65,7.5c1.23,3.48,3.65,8.37,7.6,7.52ZM10.6,10.43,8.88,5.36A16.29,16.29,0,0,0,8,3.09L5.11,10.43Z"/><path class="cls-1" d="M32.67,1.33v.22h-.4a1.33,1.33,0,0,0-1.34,1.3V14.07a23,23,0,0,0,.19,2.77h-.19L19.08,4.2V15a1.34,1.34,0,0,0,1.34,1.3h.4v.22H16.35v-.22h.4A1.35,1.35,0,0,0,18.1,15V3.72A19.11,19.11,0,0,0,17.9,1h.21L29.94,13.64V2.86A1.33,1.33,0,0,0,28.6,1.55h-.4V1.33Z"/><path class="cls-1" d="M37.34,15a1.4,1.4,0,0,0,1.39,1.37H39v.22H34.26v-.22h.28A1.4,1.4,0,0,0,35.93,15V2.9a1.39,1.39,0,0,0-1.39-1.35h-.28V1.33H39v.22h-.28A1.39,1.39,0,0,0,37.34,2.9Zm8.07.48a2.76,2.76,0,0,0,2.05.89v.21h-.92a4.32,4.32,0,0,1-3.27-1.23L38,9l5.12-6.42a.61.61,0,0,0-.52-1h-.21V1.33H47v.2h-.1a3.12,3.12,0,0,0-2.34,1L39.47,8.45Z"/><path class="cls-1" d="M62.88,15a2.15,2.15,0,0,0,1.91,1.37H65v.22H60.08v-.22h.19A.93.93,0,0,0,61.1,15l-1.39-3.7H53.86L52.4,15a.92.92,0,0,0,.83,1.35h.19v.22H49.05v-.22h.19A2.15,2.15,0,0,0,51.15,15L56.07,3.26A11.5,11.5,0,0,0,56.88,1h.19Zm-3.42-4.34-2.62-7-2.73,7Z"/><path class="cls-1" d="M72.42,1.33c2.63,0,4.24,1.55,4.24,4.08A4,4,0,0,1,73,9.55a5.35,5.35,0,0,1,1.56,1.53s1.87,2.68,2.71,3.59a3.93,3.93,0,0,0,3,1.65v.22H79a4.68,4.68,0,0,1-3.79-1.91c-.24-.29-2.69-3.86-2.86-4.06-.56-.72-1.2-1.47-2-1.47V8.9s.49,0,1.15,0A3.26,3.26,0,0,0,74.9,6.64,4.53,4.53,0,0,0,75,5.34C75,3.37,74,2.11,72.34,2c-1.11-.06-2.42,0-2.7,0V15A1.39,1.39,0,0,0,71,16.32h.27v.22H66.56v-.22h.28A1.39,1.39,0,0,0,68.23,15v-12a1.39,1.39,0,0,0-1.39-1.36h-.28V1.33Z"/><path class="cls-1" d="M95.62,15a2.14,2.14,0,0,0,1.9,1.37h.19v.22h-4.9v-.22H93A.92.92,0,0,0,93.83,15l-1.39-3.7H86.59L85.14,15A.92.92,0,0,0,86,16.32h.19v.22H81.78v-.22H82A2.14,2.14,0,0,0,83.88,15L88.81,3.26A11.59,11.59,0,0,0,89.61,1h.2ZM92.2,10.61l-2.62-7-2.73,7Z"/></g></g></svg>