<svg xmlns="http://www.w3.org/2000/svg" viewBox="0 0 54.68 51.55"><defs><style>.cls-1{fill:#f36e63;}</style></defs><title>ankara_1</title><g id="Capa_2" data-name="Capa 2"><g id="Capa_2-2" data-name="Capa 2"><path class="cls-1" d="M44.86,18.61c0-.44,0-.87,0-1.29a17.32,17.32,0,1,0-34.63,0q0,.53,0,1.08a17.32,17.32,0,0,0,7,33.15,17.12,17.12,0,0,0,10-3.21,17.12,17.12,0,0,0,10,3.21,17.32,17.32,0,0,0,7.49-32.94ZM27.59,2.18A15.15,15.15,0,0,1,42.73,17.32c0,.16,0,.33,0,.5a37.75,37.75,0,0,0-6.07-1.07,9.07,9.07,0,0,0-18.12.63c0,.24.18,6,7.82,17.31a23.07,23.07,0,0,1-4.57,4.83c-7.6-10.25-9-18.63-9.18-20.23l0-.31a16,16,0,0,1-.09-1.66A15.15,15.15,0,0,1,27.59,2.18Zm6.84,14.36a121.22,121.22,0,0,0-13.65-.2,6.89,6.89,0,0,1,13.65.2ZM27.68,32.77a70.07,70.07,0,0,1-3.83-6.51l7.53.13A67.82,67.82,0,0,1,27.68,32.77ZM13,28.72a57.49,57.49,0,0,0,6.79,11.85A6.89,6.89,0,0,1,13,28.72Zm4.27,20.64a15.13,15.13,0,0,1-6.72-28.68,36.91,36.91,0,0,0,1.64,5.95,9.07,9.07,0,0,0,8.93,15.74c.95-.32,6-2.58,12.64-15.94l2.56.05a6.91,6.91,0,0,1,3.49.95C32.6,40.67,28.65,44.54,27.34,45.59h0l-.67.53A15,15,0,0,1,17.31,49.36ZM41.55,28.85a6.89,6.89,0,0,1-5.16,11.42,10.88,10.88,0,0,1-1.6-.21C36.64,37.35,38.88,33.71,41.55,28.85ZM37.37,49.36A15,15,0,0,1,29.18,47a31.51,31.51,0,0,0,4.28-5,9.43,9.43,0,0,0,2.84.5h.06a9.08,9.08,0,0,0,0-18.15l-13.59-.24a27.09,27.09,0,0,1-1.91-5.54C37.15,18,42.8,20.1,43.22,20.27l.05,0a15.13,15.13,0,0,1-5.9,29.07Z"/></g></g></svg>